Coordinates
version=1
nRows=7
nColumns=63
inDegrees=yes

Units are S.I. units (second, meters, Newtons, ...)
If the header above contains a line with 'inDegrees', this indicates whether rotational values are in degrees (yes) or radians (no).

endheader
time	pelvis_tilt	pelvis_list	pelvis_rotation	pelvis_tx	pelvis_ty	pelvis_tz	hip_flexion_r	hip_adduction_r	hip_rotation_r	knee_angle_r	knee_angle_r_beta	ankle_angle_r	subtalar_angle_r	mtp_angle_r	hip_flexion_l	hip_adduction_l	hip_rotation_l	knee_angle_l	knee_angle_l_beta	ankle_angle_l	subtalar_angle_l	mtp_angle_l	L5_S1_Flex_Ext	L5_S1_Lat_Bending	L5_S1_axial_rotation	L4_L5_Flex_Ext	L4_L5_Lat_Bending	L4_L5_axial_rotation	L3_L4_Flex_Ext	L3_L4_Lat_Bending	L3_L4_axial_rotation	L2_L3_Flex_Ext	L2_L3_Lat_Bending	L2_L3_axial_rotation	L1_L2_Flex_Ext	L1_L2_Lat_Bending	L1_L2_axial_rotation	L1_T12_Flex_Ext	L1_T12_Lat_Bending	L1_T12_axial_rotation	Abs_r3	Abs_r2	Abs_r1	Abs_t1	Abs_t2	neck_flexion	neck_bending	neck_rotation	arm_flex_r	arm_add_r	arm_rot_r	elbow_flex_r	pro_sup_r	wrist_flex_r	wrist_dev_r	arm_flex_l	arm_add_l	arm_rot_l	elbow_flex_l	pro_sup_l	wrist_flex_l	wrist_dev_l
     11.24200000	    -44.37520424	     -8.19180200	     -2.60656178	     -0.18516031	      1.10352544	     -0.01907522	    116.77486744	     -6.67892161	     -7.66133789	    105.10679845	      1.83445970	     23.14100001	      3.47225743	      0.00000000	     80.47956269	     -7.43803920	      9.66553757	     49.99431504	      0.87256540	      8.75303453	     -7.74466909	      0.00000000	     -0.08100714	      1.30747001	      0.68791635	     -0.15043836	      1.73893511	      0.73091112	     -0.13308663	      3.17898258	      0.73091112	     -0.09258306	      3.17898258	      0.60192681	     -0.07522323	      2.66619285	      0.55893203	     -0.04628748	      2.02527105	      0.51593726	     -0.57862589	     14.79036226	      3.82598436	      0.00000000	      0.00000000	     -0.00000000	      0.00000000	      0.00000000	     61.62712992	    -13.42657677	     30.19317112	     44.72224973	     30.32312424	      0.00000000	      5.00000014	     60.88850963	     -6.45860623	     22.73990696	     35.01715337	     46.33281948	      0.00000000	      5.00000014
     11.25000000	    -44.47287537	     -8.27304515	     -2.34152943	     -0.18575600	      1.10406770	     -0.01929632	    116.91770406	     -6.73871163	     -7.58685477	    103.31325643	      1.80315649	     23.32170557	      3.15320058	      0.00000000	     81.05099869	     -7.31736694	      9.49228020	     52.35265957	      0.91372628	      8.70873611	     -7.53512398	      0.00000000	     -0.07957191	      1.32015733	      0.65526637	     -0.14777300	      1.75580925	      0.69622052	     -0.13072870	      3.20983053	      0.69622052	     -0.09094274	      3.20983053	      0.57335807	     -0.07389048	      2.69206482	      0.53240392	     -0.04546739	      2.04492370	      0.49144978	     -0.56837422	     14.93388372	      3.64439496	      0.00000000	      0.00000000	     -0.00000000	      0.00000000	      0.00000000	     61.57807190	    -13.56470200	     30.13517206	     45.02033351	     30.36404397	      0.00000000	      5.00000014	     60.90444297	     -6.39165179	     22.57746629	     35.15592767	     46.29627482	      0.00000000	      5.00000014
     11.25800000	    -44.58309151	     -8.36106059	     -2.06629504	     -0.18639483	      1.10463761	     -0.01946650	    116.81742625	     -6.72726604	     -7.51547774	    101.23576496	      1.76689742	     23.43194893	      2.78386386	      0.00000000	     81.81319586	     -7.13735812	      9.49214794	     54.99070911	      0.95976893	      8.58939008	     -7.34840345	      0.00000000	     -0.07894716	      1.33181587	      0.62598978	     -0.14661278	      1.77131511	      0.66511415	     -0.12970229	      3.23817712	      0.66511415	     -0.09022871	      3.23817712	      0.54774106	     -0.07331034	      2.71583893	      0.50861670	     -0.04511041	      2.06298279	      0.46949234	     -0.56391169	     15.06576753	      3.48156738	      0.00000000	      0.00000000	     -0.00000000	      0.00000000	      0.00000000	     61.52502331	    -13.73792424	     30.02194834	     45.35898380	     30.41690600	      0.00000000	      5.00000014	     60.95683804	     -6.27671449	     22.40609407	     35.30458436	     46.25709623	      0.00000000	      5.00000014
     11.26700000	    -44.76014095	     -8.93864457	     -2.12747512	     -0.18717171	      1.10539706	     -0.01952490	    116.30147931	     -6.54172876	     -8.18109506	     98.67728003	      1.72224343	     23.34908493	      1.75451973	      0.00000000	     82.95293316	     -7.29138196	     10.11436056	     57.99704299	      1.01223936	      8.03834923	     -7.39851385	      0.00000000	     -0.08158729	      1.40882584	      0.67031367	     -0.15151576	      1.87373837	      0.71220827	     -0.13403976	      3.42541915	      0.71220827	     -0.09324612	      3.42541915	      0.58652446	     -0.07576196	      2.87287766	      0.54462985	     -0.04661898	      2.18227123	      0.50273525	     -0.58276988	     15.93691970	      3.72808351	      0.00000000	      0.00000000	     -0.00000000	      0.00000000	      0.00000000	     61.58137346	    -14.14096050	     29.89813090	     45.88624482	     30.48963717	      0.00000000	      5.00000014	     60.94244346	     -5.80270199	     21.57577561	     35.39883566	     46.08225452	      0.00000000	      5.00000014
     11.27500000	    -44.87550980	     -8.96582105	     -1.82204813	     -0.18788937	      1.10581464	     -0.01957885	    115.76968382	     -6.41897131	     -8.06623754	     96.12393034	      1.67767907	     23.28351622	      1.39828878	      0.00000000	     84.04872261	     -6.93479622	     10.35865885	     61.09331312	      1.06627946	      7.48731451	     -7.26449870	      0.00000000	     -0.08165420	      1.40813370	      0.63626889	     -0.15164001	      1.87281782	      0.67603569	     -0.13414968	      3.42373627	      0.67603569	     -0.09332258	      3.42373627	      0.55673528	     -0.07582409	      2.87146623	      0.51696847	     -0.04665721	      2.18119909	      0.47720166	     -0.58324776	     15.92908999	      3.53873666	      0.00000000	      0.00000000	     -0.00000000	      0.00000000	      0.00000000	     61.53728899	    -14.26726716	     29.70375347	     46.18554511	     30.54493946	      0.00000000	      5.00000014	     61.07756687	     -5.64740293	     21.38896059	     35.45949917	     46.03278148	      0.00000000	      5.00000014
     11.28300000	    -44.93279953	     -8.82608200	     -1.23772778	     -0.18851224	      1.10590180	     -0.01991468	    115.10349553	     -6.45591772	     -7.64901863	     93.54581486	      1.63268247	     22.99052608	      1.21943633	      0.00000000	     85.12023102	     -6.19435738	     10.55472852	     64.23841558	      1.12117186	      7.52800783	     -7.24350640	      0.00000000	     -0.08151968	      1.38331042	      0.53962385	     -0.15139020	      1.83980286	      0.57335034	     -0.13392869	      3.36338097	      0.57335034	     -0.09316885	      3.36338097	      0.47217087	     -0.07569918	      2.82084662	      0.43844438	     -0.04658035	      2.14274785	      0.40471789	     -0.58228694	     15.64828418	      3.00122597	      0.00000000	      0.00000000	     -0.00000000	      0.00000000	      0.00000000	     61.44681294	    -14.28997190	     29.56963686	     46.48198458	     30.61971015	      0.00000000	      5.00000014	     61.25937849	     -5.61977612	     21.30724751	     35.45760347	     46.01001291	      0.00000000	      5.00000014
     11.29200000	    -45.06102105	     -9.13873608	     -1.20405700	     -0.18927996	      1.10628932	     -0.01971068	    113.97883998	     -6.10868926	     -8.01629220	     90.38164610	      1.57745731	     22.76828225	      0.67559941	      0.00000000	     86.59545045	     -6.06336536	     11.13636116	     67.64857053	      1.18069029	      6.26863129	     -7.19695130	      0.00000000	     -0.08223679	      1.41548952	      0.56741735	     -0.15272193	      1.88260106	      0.60288093	     -0.13510681	      3.44162122	      0.60288093	     -0.09398842	      3.44162122	      0.49649018	     -0.07636508	      2.88646623	      0.46102659	     -0.04699010	      2.19259327	      0.42556301	     -0.58740913	     16.01230057	      3.15580505	      0.00000000	      0.00000000	     -0.00000000	      0.00000000	      0.00000000	     61.40197762	    -14.49098275	     29.10634367	     46.79648141	     30.56384694	      0.00000000	      5.00000014	     61.51509147	     -5.27604620	     21.25508464	     35.23482192	     45.98767645	      0.00000000	      5.00000014
